<svg xmlns="http://www.w3.org/2000/svg" version="1.1" viewBox="-5.0 -10.0 110.0 135.0">
 <path d="m50 15.625c-0.63281 0-1.2031 0.37891-1.4453 0.96484-0.23828 0.58203-0.10547 1.2539 0.33984 1.7031 0.44922 0.44531 1.1211 0.57812 1.7031 0.33984 0.58594-0.24219 0.96484-0.8125 0.96484-1.4453-0.003906-0.86328-0.69922-1.5586-1.5625-1.5625zm0 65.625c-0.63281 0-1.2031 0.37891-1.4453 0.96484-0.23828 0.58203-0.10547 1.2539 0.33984 1.7031 0.44922 0.44531 1.1211 0.57812 1.7031 0.33984 0.58594-0.24219 0.96484-0.8125 0.96484-1.4453-0.003906-0.86328-0.69922-1.5586-1.5625-1.5625zm17.188-50c0.86328-0.003906 1.5586-0.69922 1.5625-1.5625v-6.25c-0.003906-0.86328-0.69922-1.5586-1.5625-1.5625h-6.25v-12.5c-0.003906-0.86328-0.69922-1.5586-1.5625-1.5625h-18.75c-0.86328 0.003906-1.5586 0.69922-1.5625 1.5625v12.5h-6.25c-0.86328 0.003906-1.5586 0.69922-1.5625 1.5625v6.25c0.003906 0.86328 0.69922 1.5586 1.5625 1.5625h10.938v3.125h-10.938c-0.86328 0.003906-1.5586 0.69922-1.5625 1.5625v6.25c0.003906 0.86328 0.69922 1.5586 1.5625 1.5625h10.938v3.125h-7.8125c-0.86328 0.003906-1.5586 0.69922-1.5625 1.5625v6.25c0.003906 0.86328 0.69922 1.5586 1.5625 1.5625h7.8125v3.125h-4.6875c-0.86328 0.003906-1.5586 0.69922-1.5625 1.5625v6.25c0.003906 0.86328 0.69922 1.5586 1.5625 1.5625h4.6875v5.0938c3.7539-2.625 8.7461-2.625 12.5 0v-5.0938h4.6875c0.86328-0.003906 1.5586-0.69922 1.5625-1.5625v-6.25c-0.003906-0.86328-0.69922-1.5586-1.5625-1.5625h-4.6875v-3.125h7.8125c0.86328-0.003906 1.5586-0.69922 1.5625-1.5625v-6.25c-0.003906-0.86328-0.69922-1.5586-1.5625-1.5625h-7.8125v-3.125h10.938c0.86328-0.003906 1.5586-0.69922 1.5625-1.5625v-6.25c-0.003906-0.86328-0.69922-1.5586-1.5625-1.5625h-10.938v-3.125zm-17.188-9.375c-1.8945 0-3.6055-1.1406-4.332-2.8945-0.72266-1.75-0.32422-3.7656 1.0156-5.1094 1.3438-1.3398 3.3594-1.7383 5.1094-1.0156 1.7539 0.72656 2.8945 2.4375 2.8945 4.332-0.007812 2.5859-2.1016 4.6797-4.6875 4.6875zm0 53.125c-3.1602 0-6.0078 1.9023-7.2188 4.8242-1.207 2.918-0.53906 6.2773 1.6953 8.5117 2.2344 2.2344 5.5938 2.9023 8.5117 1.6953 2.9219-1.2109 4.8242-4.0586 4.8242-7.2188 0-4.3125-3.5-7.8125-7.8125-7.8125zm0 12.5c-1.8945 0-3.6055-1.1406-4.332-2.8945-0.72266-1.75-0.32422-3.7656 1.0156-5.1094 1.3438-1.3398 3.3594-1.7383 5.1094-1.0156 1.7539 0.72656 2.8945 2.4375 2.8945 4.332-0.007812 2.5859-2.1016 4.6797-4.6875 4.6875zm0-71.875c-0.63281 0-1.2031 0.37891-1.4453 0.96484-0.23828 0.58203-0.10547 1.2539 0.33984 1.7031 0.44922 0.44531 1.1211 0.57812 1.7031 0.33984 0.58594-0.24219 0.96484-0.8125 0.96484-1.4453-0.003906-0.86328-0.69922-1.5586-1.5625-1.5625zm0 65.625c-0.63281 0-1.2031 0.37891-1.4453 0.96484-0.23828 0.58203-0.10547 1.2539 0.33984 1.7031 0.44922 0.44531 1.1211 0.57812 1.7031 0.33984 0.58594-0.24219 0.96484-0.8125 0.96484-1.4453-0.003906-0.86328-0.69922-1.5586-1.5625-1.5625zc-0.63281 0-1.2031 0.37891-1.4453 0.96484-0.23828 0.58203-0.10547 1.2539 0.33984 1.7031 0.44922 0.44531 1.1211 0.57812 1.7031 0.33984 0.58594-0.24219 0.96484-0.8125 0.96484-1.4453-0.003906-0.86328-0.69922-1.5586-1.5625-1.5625zm0-65.625c-0.63281 0-1.2031 0.37891-1.4453 0.96484-0.23828 0.58203-0.10547 1.2539 0.33984 1.7031 0.44922 0.44531 1.1211 0.57812 1.7031 0.33984 0.58594-0.24219 0.96484-0.8125 0.96484-1.4453-0.003906-0.86328-0.69922-1.5586-1.5625-1.5625z"/></svg>