<svg xmlns="http://www.w3.org/2000/svg" version="1.1" viewBox="-5.0 -10.0 110.0 135.0">
 <path d="m19.094 12.676c5.5859-2.0586 13.199-3.3008 21.531-3.3008s15.945 1.2422 21.531 3.3008c2.7891 1.0273 5.1523 2.2852 6.8477 3.7617 1.6953 1.4766 2.8711 3.3086 2.8711 5.4375v3.125c0 0.75781-0.52734 1.7891-2.1797 2.9961-1.6055 1.1719-3.9961 2.2852-6.9922 3.25-5.9766 1.9219-14.016 3.1289-22.078 3.1289s-16.102-1.207-22.078-3.1289c-2.9961-0.96484-5.3867-2.0781-6.9922-3.25-1.6523-1.207-2.1797-2.2383-2.1797-2.9961v-3.125c0-2.1289 1.1758-3.9609 2.8711-5.4375 1.6953-1.4766 4.0586-2.7344 6.8477-3.7617zm10.035 4.3867c3.0078-0.90234 7.0742-1.4375 11.496-1.4375s8.4883 0.53516 11.496 1.4375c1.4961 0.44922 2.8203 1.0156 3.8047 1.7148 0.94531 0.66797 1.8867 1.6914 1.8867 3.0977s-0.94141 2.4297-1.8867 3.0977c-0.98438 0.69922-2.3086 1.2656-3.8047 1.7148-3.0078 0.90234-7.0742 1.4375-11.496 1.4375s-8.4883-0.53516-11.496-1.4375c-1.4961-0.44922-2.8203-1.0156-3.8047-1.7148-0.94531-0.66797-1.8867-1.6914-1.8867-3.0977s0.94141-2.4297 1.8867-3.0977c0.98438-0.69922 2.3086-1.2656 3.8047-1.7148z" fill-rule="evenodd"/>
 <path d="m71.535 30.52c0.11719-0.082031 0.23047-0.16797 0.33984-0.25391v40.047c0 0.82422-0.60156 2.0664-2.3008 3.5781-1.3477 1.207-3.2227 2.4297-5.5117 3.5742v-43.09h-0.89062c0.16406-0.050781 0.32422-0.10156 0.48438-0.15234 3.1602-1.0156 5.8984-2.2578 7.8789-3.7031z"/>
 <path d="m64.062 81.25h-0.73047c-6.2852 2.7344-14.492 4.6875-22.707 4.6875s-16.422-1.9531-22.707-4.6875h-0.73047v-0.32422c-3.0664-1.3984-5.6914-3.0039-7.5938-4.7031-0.074219-0.0625-0.14844-0.12891-0.21875-0.19531v2.0977c0 2.1289 1.1758 3.9609 2.8711 5.4375 1.6953 1.4766 4.0586 2.7344 6.8477 3.7617 5.5859 2.0586 13.199 3.3008 21.531 3.3008s15.945-1.2422 21.531-3.3008c2.7891-1.0273 5.1523-2.2852 6.8477-3.7617 1.6953-1.4766 2.8711-3.3086 2.8711-5.4375v-2.0977c-0.070312 0.066406-0.14453 0.13281-0.21875 0.19531-1.9023 1.6992-4.5273 3.3047-7.5938 4.7031z"/>
 <path d="m60.938 35.016v43.848c-2.3789 0.96094-5.0195 1.8008-7.8125 2.457v-44.73c2.7617-0.40625 5.3945-0.9375 7.8125-1.5742z"/>
 <path d="m50 36.988v44.977c-2.543 0.44922-5.1719 0.73828-7.8125 0.82422v-45.305c2.6367-0.046875 5.2617-0.21875 7.8125-0.49609z"/>
 <path d="m31.25 81.965c2.543 0.44922 5.1719 0.73828 7.8125 0.82422v-45.305c-2.6367-0.046875-5.2617-0.21875-7.8125-0.49609z"/>
 <path d="m28.125 36.59c-2.7617-0.40625-5.3945-0.9375-7.8125-1.5742v43.848c2.3789 0.96094 5.0195 1.8008 7.8125 2.457z"/>
 <path d="m17.188 34.375v43.09c-2.2891-1.1445-4.1641-2.3672-5.5117-3.5742-1.6992-1.5117-2.3008-2.7539-2.3008-3.5781v-40.047c0.10938 0.085937 0.22266 0.17188 0.33984 0.25391 1.9805 1.4453 4.7188 2.6875 7.8789 3.7031 0.16016 0.050782 0.32031 0.10156 0.48438 0.15234z"/>
 <path d="m84.168 11.727c-0.27734-0.48828-0.79297-0.78906-1.3555-0.78906s-1.0781 0.30078-1.3555 0.78906l-5.2734 9.2266c-0.77734 1.3555-1.1836 2.8906-1.1836 4.4531v1.1562c0 4.3164 3.4961 7.8125 7.8125 7.8125s7.8125-3.4961 7.8125-7.8125v-1.1562c0-1.5625-0.40625-3.0977-1.1836-4.4531zm-2.918 13.273c0.86328 0 1.5625-0.69922 1.5625-1.5625s-0.69922-1.5625-1.5625-1.5625-1.5625 0.69922-1.5625 1.5625 0.69922 1.5625 1.5625 1.5625zm3.125 4.6875c0.86328 0 1.5625-0.69922 1.5625-1.5625s-0.69922-1.5625-1.5625-1.5625-1.5625 0.69922-1.5625 1.5625 0.69922 1.5625 1.5625 1.5625z" fill-rule="evenodd"/>
 <path d="m82.812 39.062c0.5625 0 1.0781 0.30078 1.3555 0.78906l5.2734 9.2266c0.77734 1.3555 1.1836 2.8906 1.1836 4.4531v1.1562c0 4.3164-3.4961 7.8125-7.8125 7.8125s-7.8125-3.4961-7.8125-7.8125v-1.1562c0-1.5625 0.40625-3.0977 1.1836-4.4531l5.2734-9.2266c0.27734-0.48828 0.79297-0.78906 1.3555-0.78906zm0 12.5c0 0.86328-0.69922 1.5625-1.5625 1.5625s-1.5625-0.69922-1.5625-1.5625 0.69922-1.5625 1.5625-1.5625 1.5625 0.69922 1.5625 1.5625zm3.125 4.6875c0 0.86328-0.69922 1.5625-1.5625 1.5625s-1.5625-0.69922-1.5625-1.5625 0.69922-1.5625 1.5625-1.5625 1.5625 0.69922 1.5625 1.5625z" fill-rule="evenodd"/>
 <path d="m84.168 67.977c-0.27734-0.48828-0.79297-0.78906-1.3555-0.78906s-1.0781 0.30078-1.3555 0.78906l-5.2734 9.2266c-0.77734 1.3555-1.1836 2.8906-1.1836 4.4531v1.1562c0 4.3164 3.4961 7.8125 7.8125 7.8125s7.8125-3.4961 7.8125-7.8125v-1.1562c0-1.5625-0.40625-3.0977-1.1836-4.4531zm-2.918 13.273c0.86328 0 1.5625-0.69922 1.5625-1.5625s-0.69922-1.5625-1.5625-1.5625-1.5625 0.69922-1.5625 1.5625 0.69922 1.5625 1.5625 1.5625zm3.125 4.6875c0.86328 0 1.5625-0.69922 1.5625-1.5625s-0.69922-1.5625-1.5625-1.5625-1.5625 0.69922-1.5625 1.5625 0.69922 1.5625 1.5625 1.5625z" fill-rule="evenodd"/>
</svg>