<svg xmlns="http://www.w3.org/2000/svg" xmlns:xlink="http://www.w3.org/1999/xlink" version="1.1" x="0px" y="0px" viewBox="-1.6 -3.2 35.2 43.2" enable-background="new 0 0 32 32" xml:space="preserve"><g><path d="M29,8.063h-1c0-0.552-0.447-1-1-1s-1,0.448-1,1H11.04v-1h0.998c0.553,0,1-0.448,1-1V2.938c0-0.268-0.107-0.524-0.299-0.712   c-0.189-0.188-0.446-0.269-0.717-0.288l-8,0.125c-0.546,0.009-0.984,0.454-0.984,1v3c0,0.552,0.447,1,1,1H5.04v1H3   c-0.553,0-1,0.448-1,1v19c0,0.552,0.447,1,1,1h1c0,0.552,0.447,1,1,1s1-0.448,1-1h20c0,0.552,0.447,1,1,1s1-0.448,1-1h1   c0.553,0,1-0.448,1-1v-19C30,8.51,29.553,8.063,29,8.063z M8,10.063h1.05v17H8V10.063z M11.05,10.063h0.891v17H11.05V10.063z    M13.94,10.063H15v17h-1.06V10.063z M17,10.063h1v17h-1V10.063z M20,10.063h1v17h-1V10.063z M23,10.063h1v17h-1V10.063z    M5.038,4.047l6-0.094v1.109h-6V4.047z M9.04,7.063v1h-2v-1H9.04z M4,10.063h2v17H4V10.063z M28,27.063h-2v-17h2V27.063z"/></g></svg>