<svg xmlns="http://www.w3.org/2000/svg" xmlns:xlink="http://www.w3.org/1999/xlink" xml:space="preserve" version="1.1" style="shape-rendering:geometricPrecision;text-rendering:geometricPrecision;image-rendering:optimizeQuality;" viewBox="0 0 333 416.25" x="0px" y="0px" fill-rule="evenodd" clip-rule="evenodd"><defs><style type="text/css">
   
    .fil0 {fill:black}
   
  </style></defs><g><path class="fil0" d="M207 133l-54 0 0 -43c0,-10 8,-18 18,-18l40 0 0 12 -4 0c-30,0 -30,49 0,49zm-63 0l-28 0 0 -25 10 0 0 -49 -38 0 0 49 11 0 0 25 -25 0c-78,0 -78,125 0,125l4 0 10 28 12 0 0 -28 96 0c1,-15 13,-27 28,-27 15,0 27,12 28,27l7 0c78,0 78,-125 0,-125l-12 0c29,0 29,-49 0,-49l-5 0 0 -36 -31 0 0 15 -40 0c-15,0 -27,12 -27,27l0 43zm81 104c-13,0 -24,10 -24,23 0,13 11,23 24,23 12,0 23,-10 23,-23 0,-13 -11,-23 -23,-23z"/></g></svg>