<svg xmlns="http://www.w3.org/2000/svg" xmlns:xlink="http://www.w3.org/1999/xlink" version="1.1" x="0px" y="0px" viewBox="0 0 33 41.25" enable-background="new 0 0 33 33" xml:space="preserve"><path d="M16.5,0.5c-8.822,0-16,7.178-16,16s7.178,16,16,16s16-7.178,16-16S25.322,0.5,16.5,0.5z M16.5,29.453  c-7.143,0-12.953-5.811-12.953-12.953S9.357,3.549,16.5,3.549S29.451,9.357,29.451,16.5S23.643,29.453,16.5,29.453z"/><path d="M16.5,8.119c-4.621,0-8.381,3.76-8.381,8.381s3.76,8.381,8.381,8.381s8.381-3.76,8.381-8.381S21.121,8.119,16.5,8.119z   M16.5,22.443c-3.277,0-5.943-2.666-5.943-5.943c0-3.275,2.666-5.941,5.943-5.941c3.275,0,5.941,2.666,5.941,5.941  C22.441,19.777,19.775,22.443,16.5,22.443z"/><path d="M27.355,14.098c-0.07-0.32-0.15-0.637-0.25-0.945c0.637-0.553,0.814-1.494,0.377-2.25L26.84,9.791  c-0.439-0.762-1.352-1.078-2.152-0.795c-0.219-0.236-0.445-0.465-0.684-0.684c0.283-0.801-0.031-1.713-0.793-2.152L22.1,5.52  c-0.756-0.438-1.697-0.26-2.252,0.375c-0.309-0.098-0.625-0.178-0.943-0.25c-0.16-0.828-0.887-1.455-1.762-1.455h-1.285  c-0.875,0-1.604,0.627-1.762,1.455c-0.32,0.072-0.637,0.152-0.945,0.25c-0.553-0.637-1.494-0.814-2.25-0.377L9.789,6.16  C9.027,6.6,8.711,7.512,8.994,8.313C8.758,8.531,8.529,8.758,8.313,8.996C7.512,8.713,6.598,9.027,6.158,9.789L5.516,10.9  c-0.438,0.756-0.26,1.697,0.377,2.252c-0.098,0.309-0.178,0.625-0.248,0.943c-0.83,0.158-1.459,0.887-1.457,1.762v1.285  c0,0.875,0.627,1.604,1.457,1.762c0.07,0.32,0.15,0.637,0.248,0.945c-0.637,0.553-0.816,1.494-0.377,2.25l0.643,1.111  c0.439,0.764,1.352,1.078,2.154,0.793c0.217,0.238,0.445,0.465,0.682,0.684c-0.283,0.801,0.029,1.715,0.793,2.154l1.111,0.641  c0.756,0.439,1.699,0.262,2.252-0.375c0.309,0.098,0.625,0.178,0.943,0.248c0.16,0.83,0.887,1.459,1.764,1.457h1.283  c0.875,0,1.602-0.627,1.762-1.457c0.32-0.07,0.637-0.15,0.945-0.248c0.553,0.637,1.494,0.814,2.25,0.377l1.111-0.643  c0.762-0.439,1.078-1.352,0.793-2.152c0.238-0.219,0.467-0.445,0.684-0.684c0.801,0.283,1.715-0.029,2.154-0.793l0.641-1.111  c0.438-0.756,0.262-1.697-0.375-2.25c0.098-0.311,0.178-0.627,0.25-0.947c0.828-0.158,1.455-0.885,1.455-1.762v-1.283  C28.811,14.986,28.184,14.258,27.355,14.098z M26.148,18.707c-0.055,0.24-0.111,0.477-0.184,0.709  c-0.633-0.014-1.256,0.303-1.594,0.891l-0.643,1.111c-0.336,0.582-0.303,1.271,0.02,1.811c-0.168,0.182-0.342,0.354-0.521,0.521  c-0.541-0.32-1.23-0.355-1.813-0.018l-1.113,0.641c-0.586,0.34-0.9,0.961-0.889,1.594c-0.232,0.072-0.469,0.129-0.709,0.184  c-0.307-0.553-0.887-0.93-1.563-0.93l-1.285-0.002c-0.674,0.002-1.256,0.379-1.563,0.93c-0.238-0.055-0.477-0.111-0.709-0.182  c0.014-0.633-0.303-1.254-0.889-1.594l-1.113-0.643c-0.582-0.336-1.27-0.303-1.811,0.018c-0.18-0.166-0.354-0.34-0.521-0.521  c0.32-0.539,0.354-1.229,0.018-1.811l-0.641-1.113c-0.34-0.586-0.961-0.9-1.594-0.889c-0.072-0.23-0.129-0.469-0.182-0.707  c0.551-0.307,0.928-0.889,0.928-1.564l0.002-1.285c-0.002-0.674-0.379-1.256-0.93-1.563c0.053-0.238,0.109-0.477,0.182-0.709  c0.633,0.014,1.254-0.303,1.594-0.889l0.643-1.111c0.336-0.582,0.303-1.271-0.02-1.813c0.168-0.18,0.342-0.354,0.521-0.521  c0.541,0.32,1.23,0.355,1.813,0.02l1.111-0.643c0.588-0.34,0.902-0.961,0.891-1.594c0.23-0.072,0.469-0.129,0.707-0.184  c0.307,0.553,0.889,0.93,1.564,0.93h1.285c0.676,0,1.258-0.377,1.564-0.93c0.238,0.055,0.475,0.111,0.707,0.184  c-0.014,0.633,0.301,1.256,0.889,1.594l1.111,0.643c0.584,0.336,1.273,0.303,1.814-0.02c0.18,0.168,0.352,0.342,0.52,0.521  c-0.32,0.541-0.355,1.23-0.018,1.813l0.641,1.113c0.34,0.586,0.961,0.902,1.596,0.889c0.07,0.23,0.127,0.469,0.182,0.707  c-0.553,0.307-0.93,0.889-0.93,1.564l-0.002,1.285C25.219,17.82,25.596,18.402,26.148,18.707z"/></svg>