<svg xmlns="http://www.w3.org/2000/svg" version="1.1" viewBox="-5.0 -10.0 110.0 135.0">
 <path d="m24.27 91.906-5.5547 1.1367c-6.5547 1.3438-13.25-1.6328-16.625-7.4766-3.3477-5.8047-2.625-13.109 1.8359-18.141l2.2344-2.5156c-4.9414-22.145 7.3242-44.277 28.297-51.992l0.75-2.2578c2.1289-6.3789 8.0742-10.66 14.793-10.66s12.656 4.2734 14.789 10.656l0.75391 2.2578c20.922 7.6953 33.25 29.812 28.297 51.992l2.2344 2.5156c2.5312 2.8516 3.9258 6.5273 3.9258 10.344 0 9.7422-8.9336 17.273-18.719 15.273l-5.5547-1.1367c-15.414 10.801-36.039 10.809-51.461 0zm0.71875-6.4648c0.67188 0 1.3281 0.21484 1.8711 0.625 13.539 10.133 32.414 10.375 46.281 0 0.71484-0.53516 1.625-0.73828 2.5-0.55859 7.4609 1.5273 7.5156 1.6055 8.7812 1.6055 5.1836 0 9.332-4.2188 9.332-9.3398 0-2.2891-0.83594-4.4883-2.3516-6.1953l-3.3164-3.7383c-0.69531-0.78125-0.94922-1.8594-0.68359-2.8672 5.2578-19.949-6.0312-40.293-25.309-46.629-0.9375-0.30859-1.6758-1.043-1.9883-1.9805l-1.2383-3.7148c-1.2812-3.8281-4.8516-6.3867-8.8594-6.3867-4.0078 0-7.5859 2.5664-8.8594 6.3867l-1.2383 3.7148c-0.3125 0.9375-1.0508 1.6719-1.9883 1.9805-19.445 6.375-30.531 26.848-25.32 46.617 0.26563 1.0078 0.007813 2.0859-0.68359 2.8672l-3.3164 3.7383c-2.6797 3.0234-3.1016 7.3984-1.1016 10.867 2.0156 3.4883 6.0156 5.2852 9.9609 4.4766 7.4922-1.5312 7.0859-1.4766 7.5234-1.4766z"/>
 <path d="m53.125 14.844c0 4.168-6.25 4.168-6.25 0s6.25-4.168 6.25 0"/>
 <path d="m18.164 78.125c0 4.168-6.25 4.168-6.25 0s6.25-4.168 6.25 0"/>
 <path d="m88.086 78.125c0 4.168-6.25 4.168-6.25 0s6.25-4.168 6.25 0"/>
 <path d="m50 70.508c-8.5078 0-15.43-6.9219-15.43-15.43s6.9219-15.43 15.43-15.43 15.43 6.9219 15.43 15.43-6.9219 15.43-15.43 15.43zm0-24.609c-5.0625 0-9.1797 4.1172-9.1797 9.1797s4.1172 9.1797 9.1797 9.1797 9.1797-4.1172 9.1797-9.1797-4.1172-9.1797-9.1797-9.1797z"/>
 <path d="m50 83.008c-15.398 0-27.93-12.531-27.93-27.93 0-15.402 12.531-27.93 27.93-27.93s27.93 12.531 27.93 27.93-12.531 27.93-27.93 27.93zm0-49.609c-11.953 0-21.68 9.7266-21.68 21.68 0 11.957 9.7266 21.68 21.68 21.68 11.957 0 21.68-9.7266 21.68-21.68s-9.7266-21.68-21.68-21.68z"/>
</svg>