<svg xmlns="http://www.w3.org/2000/svg" viewBox="0 0 60 75" x="0px" y="0px"><path d="M44.769,5.979a1.027,1.027,0,0,0-.551-.907,1.016,1.016,0,0,0-.48-.122,1.044,1.044,0,0,0-.3.046,1,1,0,0,0-.594.493L35.253,19.783a1.041,1.041,0,0,0,.424,1.386,1.021,1.021,0,0,0,1.383-.427L44.642,6.449A.994.994,0,0,0,44.769,5.979Z"/><path d="M15.934,56.034,3.5,49.448a1.022,1.022,0,1,0-.961,1.8l12.516,6.631a1.024,1.024,0,1,0,.878-1.848Z"/><path d="M40.6,5.443,34.335,2.124a1,1,0,0,0-.774-.08,1.011,1.011,0,0,0-.606.5L27.268,13.265a1.02,1.02,0,0,0-.076.779,1,1,0,0,0,.494.6l6.269,3.32Z"/><polygon points="45.846 12.815 44.041 11.85 41.189 17.226 42.985 18.179 45.846 12.815"/><path d="M55.98,23.917l1.9-3.575,0,0a1.022,1.022,0,0,0-.431-1.377l-1.786-.948-2.855,5.369,1.786.951A1.017,1.017,0,0,0,55.98,23.917Z"/><rect x="9.49" y="27.793" width="25.941" height="2.047" transform="translate(-13.522 35.156) rotate(-62.058)"/><rect x="9.074" y="42.225" width="6.092" height="12.159" transform="translate(-36.228 36.359) rotate(-62.036)"/><path d="M22.111,46.757a1.057,1.057,0,0,0,.078-.8.987.987,0,0,0-.481-.595L9.184,38.721a1.053,1.053,0,0,0-1.381.427,1.021,1.021,0,0,0,.434,1.383l12.5,6.634A1.054,1.054,0,0,0,22.111,46.757Z"/><rect x="47.295" y="14.543" width="4.068" height="7.105" transform="translate(10.235 53.202) rotate(-62.07)"/></svg>