<svg xmlns="http://www.w3.org/2000/svg" version="1.1" viewBox="-5.0 -10.0 110.0 135.0">
 <path d="m87.191 41.512c-0.39062-1.7305-0.078125-3.4414 0.80078-4.8086-1.5508-0.51953-2.8516-1.6602-3.6289-3.2617-0.76953-1.6016-0.83984-3.3281-0.28906-4.8711-1.6211-0.16016-3.1484-0.98047-4.2617-2.3711-1.1094-1.3906-1.5586-3.0586-1.3594-4.6797-1.6211 0.19922-3.2891-0.25-4.6797-1.3594-1.3906-1.1094-2.1992-2.6406-2.3711-4.2617-1.5312 0.55078-3.2617 0.48047-4.8711-0.28906-1.6016-0.76953-2.7305-2.0781-3.2617-3.6289-1.3711 0.87891-3.0703 1.1992-4.8086 0.80078-1.7305-0.39844-3.1289-1.4219-3.9805-2.8086-1.1406 1.1719-2.7305 1.8516-4.5117 1.8516s-3.3711-0.69141-4.5117-1.8516c-0.85156 1.3906-2.25 2.4102-3.9805 2.8086-1.7305 0.39062-3.4414 0.078125-4.8086-0.80078-0.51953 1.5508-1.6602 2.8516-3.2617 3.6289-1.6016 0.76953-3.3281 0.83984-4.8711 0.28906-0.16016 1.6211-0.98047 3.1484-2.3711 4.2617-1.3906 1.1094-3.0586 1.5586-4.6797 1.3594 0.19922 1.6211-0.25 3.2891-1.3594 4.6797s-2.6406 2.1992-4.2617 2.3711c0.55078 1.5312 0.48047 3.2617-0.28906 4.8711-0.76953 1.6016-2.0781 2.7305-3.6289 3.2617 0.87891 1.3711 1.1992 3.0703 0.80078 4.8086-0.39844 1.7305-1.4219 3.1289-2.8086 3.9805 1.1719 1.1406 1.8516 2.7305 1.8516 4.5117s-0.69141 3.3711-1.8516 4.5117c1.3906 0.85156 2.4102 2.25 2.8086 3.9805 0.39062 1.7305 0.078125 3.4414-0.80078 4.8086 1.5508 0.51953 2.8516 1.6602 3.6289 3.2617 0.76953 1.6016 0.83984 3.3281 0.28906 4.8711 1.6211 0.16016 3.1484 0.98047 4.2617 2.3711 1.1094 1.3906 1.5586 3.0586 1.3594 4.6797 1.6211-0.19922 3.2891 0.25 4.6797 1.3594 1.3906 1.1094 2.1992 2.6406 2.3711 4.2617 1.5312-0.55078 3.2617-0.48047 4.8711 0.28906 1.6016 0.76953 2.7305 2.0781 3.2617 3.6289 1.3711-0.87891 3.0703-1.1992 4.8086-0.80078 1.7305 0.39844 3.1289 1.4219 3.9805 2.8086 1.1406-1.1719 2.7305-1.8516 4.5117-1.8516s3.3711 0.69141 4.5117 1.8516c0.85156-1.3906 2.25-2.4102 3.9805-2.8086 1.7305-0.39062 3.4414-0.078124 4.8086 0.80078 0.51953-1.5508 1.6602-2.8516 3.2617-3.6289 1.6016-0.76953 3.3281-0.83984 4.8711-0.28906 0.16016-1.6211 0.98047-3.1484 2.3711-4.2617 1.3906-1.1094 3.0586-1.5586 4.6797-1.3594-0.19922-1.6211 0.25-3.2891 1.3594-4.6797s2.6406-2.1992 4.2617-2.3711c-0.55078-1.5312-0.48047-3.2617 0.28906-4.8711 0.76953-1.6016 2.0781-2.7305 3.6289-3.2617-0.87891-1.3711-1.1992-3.0703-0.80078-4.8086 0.39844-1.7305 1.4219-3.1289 2.8086-3.9805-1.1719-1.1406-1.8516-2.7305-1.8516-4.5117s0.69141-3.3711 1.8516-4.5117c-1.3906-0.85156-2.4102-2.25-2.8086-3.9805zm-37.191 42.98c-19.02 0-34.488-15.469-34.488-34.488 0-19.023 15.469-34.492 34.488-34.492s34.488 15.469 34.488 34.488-15.469 34.488-34.488 34.488z"/>
 <path d="m50 18.109c-17.578 0-31.891 14.301-31.891 31.891s14.301 31.891 31.891 31.891 31.891-14.301 31.891-31.891-14.301-31.891-31.891-31.891zm14.852 11.391c0.75-0.75 1.7617-1.1719 2.8203-1.1719s2.0703 0.42188 2.8203 1.1719c1.5586 1.5586 1.5586 4.0898 0 5.6484-0.75 0.75-1.7617 1.1719-2.8203 1.1719s-2.0703-0.41016-2.8203-1.1719c-1.5586-1.5586-1.5586-4.0898 0-5.6484zm-14.852-8.4883c2.1992 0 3.9883 1.7891 3.9883 3.9883s-1.7891 3.9883-3.9883 3.9883-3.9883-1.7891-3.9883-3.9883 1.7891-3.9883 3.9883-3.9883zm-20.5 8.4883c0.75-0.75 1.7617-1.1719 2.8203-1.1719 1.0586 0 2.0703 0.42188 2.8203 1.1719 1.5586 1.5586 1.5586 4.0898 0 5.6484-0.75 0.75-1.7617 1.1719-2.8203 1.1719-1.0586 0-2.0703-0.41016-2.8203-1.1719-1.5586-1.5586-1.5586-4.0898 0-5.6484zm-4.5 24.488c-2.1992 0-3.9883-1.7891-3.9883-3.9883s1.7891-3.9883 3.9883-3.9883 3.9883 1.7891 3.9883 3.9883-1.7891 3.9883-3.9883 3.9883zm10.148 16.512c-0.75 0.75-1.7617 1.1719-2.8203 1.1719s-2.0703-0.42188-2.8203-1.1719c-1.5586-1.5586-1.5586-4.0898 0-5.6484 0.37891-0.37891 0.82031-0.67187 1.2891-0.87109 0.48047-0.19922 1-0.30078 1.5312-0.30078 1.0703 0 2.0703 0.41016 2.8203 1.1719 1.5586 1.5586 1.5586 4.0898 0 5.6484zm14.852 8.4883c-2.1992 0-3.9883-1.7891-3.9883-3.9883s1.7891-3.9883 3.9883-3.9883 3.9883 1.7891 3.9883 3.9883-1.7891 3.9883-3.9883 3.9883zm0-10.18c-10.371 0-18.809-8.4414-18.809-18.809 0-10.371 8.4414-18.809 18.809-18.809 10.371 0 18.809 8.4414 18.809 18.809 0 10.371-8.4414 18.809-18.809 18.809zm20.5 1.6914c-0.75 0.75-1.7617 1.1719-2.8203 1.1719-1.0586 0-2.0703-0.42188-2.8203-1.1719-1.5586-1.5586-1.5586-4.0898 0-5.6484 0.75-0.75 1.7617-1.1719 2.8203-1.1719 1.0586 0 2.0703 0.41016 2.8203 1.1719 0.78125 0.78125 1.1719 1.8008 1.1719 2.8203s-0.39062 2.0508-1.1719 2.8203zm8.4883-20.5c0 2.1992-1.7891 3.9883-3.9883 3.9883s-3.9883-1.7891-3.9883-3.9883 1.7891-3.9883 3.9883-3.9883 3.9883 1.7891 3.9883 3.9883z"/>
 <path d="m50 33.789c-8.9414 0-16.211 7.2695-16.211 16.211s7.2695 16.211 16.211 16.211 16.211-7.2695 16.211-16.211-7.2695-16.211-16.211-16.211zm0 26.602c-5.7305 0-10.391-4.6602-10.391-10.391s4.6602-10.391 10.391-10.391 10.391 4.6602 10.391 10.391-4.6602 10.391-10.391 10.391z"/>
 <path d="m57.789 50c0 4.3008-3.4883 7.7891-7.7891 7.7891s-7.7891-3.4883-7.7891-7.7891 3.4883-7.7891 7.7891-7.7891 7.7891 3.4883 7.7891 7.7891"/>
 <path d="m50 26.398c0.76953 0 1.3906-0.62109 1.3906-1.3906 0-0.76953-0.62109-1.3906-1.3906-1.3906s-1.3906 0.62109-1.3906 1.3906c0 0.76953 0.62109 1.3906 1.3906 1.3906z"/>
 <path d="m50 73.602c-0.76953 0-1.3906 0.62109-1.3906 1.3906 0 0.76953 0.62109 1.3906 1.3906 1.3906s1.3906-0.62109 1.3906-1.3906c0-0.76953-0.62109-1.3906-1.3906-1.3906z"/>
 <path d="m25.012 48.609c-0.76953 0-1.3906 0.62109-1.3906 1.3906s0.62109 1.3906 1.3906 1.3906 1.3906-0.62109 1.3906-1.3906-0.62109-1.3906-1.3906-1.3906z"/>
 <path d="m74.988 51.391c0.76953 0 1.3906-0.62109 1.3906-1.3906s-0.62109-1.3906-1.3906-1.3906-1.3906 0.62109-1.3906 1.3906 0.62109 1.3906 1.3906 1.3906z"/>
 <path d="m32.328 33.719c0.37109 0 0.71875-0.14844 0.98047-0.41016 0.53906-0.53906 0.53906-1.4297 0-1.9688-0.26172-0.26172-0.60938-0.41016-0.98047-0.41016s-0.71875 0.14844-0.98047 0.41016c-0.53906 0.53906-0.53906 1.4297 0 1.9688 0.26172 0.26172 0.60938 0.41016 0.98047 0.41016z"/>
 <path d="m67.672 66.281c-0.37109 0-0.71875 0.14844-0.98047 0.41016-0.53906 0.53906-0.53906 1.4297 0 1.9688 0.26172 0.26172 0.60938 0.41016 0.98047 0.41016s0.71875-0.14844 0.98047-0.41016c0.53906-0.53906 0.53906-1.4297 0-1.9688-0.26172-0.26172-0.60938-0.41016-0.98047-0.41016z"/>
 <path d="m67.672 33.719c0.37109 0 0.71875-0.14844 0.98047-0.41016 0.53906-0.53906 0.53906-1.4297 0-1.9688-0.26172-0.26172-0.60938-0.41016-0.98047-0.41016s-0.71875 0.14844-0.98047 0.41016c-0.53906 0.53906-0.53906 1.4297 0 1.9688 0.26172 0.26172 0.60938 0.41016 0.98047 0.41016z"/>
 <path d="m32.328 66.281c-0.37109 0-0.71875 0.14844-0.98047 0.41016-0.26953 0.26953-0.41016 0.62891-0.41016 0.98047s0.12891 0.71094 0.41016 0.98047c0.26172 0.26172 0.60938 0.41016 0.98047 0.41016s0.71875-0.14844 0.98047-0.41016c0.53906-0.53906 0.53906-1.4297 0-1.9688-0.26172-0.26172-0.60938-0.41016-0.98047-0.41016z"/>
</svg>