<svg xmlns="http://www.w3.org/2000/svg" version="1.1" viewBox="-5.0 -10.0 110.0 135.0">
 <path d="m75.703 16.668h-3.5977c-2.543 0-4.6055 2.0625-4.6055 4.6055v10.746c0 2.5469 2.0625 4.6055 4.6055 4.6055h3.5977c2.543 0 4.6055-2.0586 4.6055-4.6055v-10.746c0-2.543-2.0625-4.6055-4.6055-4.6055z"/>
 <path d="m29.035 16.668h-3.5938c-2.5469 0-4.6094 2.0625-4.6094 4.6055v10.746c0 2.5469 2.0625 4.6055 4.6094 4.6055h3.5938c2.543 0 4.6055-2.0586 4.6055-4.6055v-10.746c0-2.543-2.0625-4.6055-4.6055-4.6055z"/>
 <path d="m75.703 63.379h-3.5977c-2.543 0-4.6055 2.0625-4.6055 4.6055v10.75c0 2.543 2.0625 4.6055 4.6055 4.6055h3.5977c2.543 0 4.6055-2.0625 4.6055-4.6055v-10.75c0-2.543-2.0625-4.6055-4.6055-4.6055z"/>
 <path d="m29.035 63.379h-3.5938c-2.5469 0-4.6094 2.0625-4.6094 4.6055v10.75c0 2.543 2.0625 4.6055 4.6094 4.6055h3.5938c2.543 0 4.6055-2.0625 4.6055-4.6055v-10.75c0-2.543-2.0625-4.6055-4.6055-4.6055z"/>
 <path d="m60.188 24.629h-2.668v-0.082031c0-2.9102-2.3828-5.293-5.293-5.293h-3.2695c-2.9102 0-5.2969 2.3828-5.2969 5.293v0.082031h-2.625c-0.12109-1.4531-1.332-2.5859-2.7891-2.5859h-1.5742v9.2109h1.5742c1.457 0 2.6289-1.1289 2.7891-2.5859h2.625v1.0938c0 1.3711 0.56641 2.7461 1.5391 3.7539l1.6562 1.6602c0.52344 0.52344 1.0898 0.88672 1.7344 1.1289v8.4844c-2.0977 0.80859-3.5938 2.8281-3.5938 5.2148 0 2.3828 1.4961 4.4023 3.5938 5.2109v8.4844c-0.64453 0.24219-1.2109 0.64844-1.7344 1.1328l-1.6562 1.6562c-1.0117 1.0117-1.5391 2.3438-1.5391 3.7578v1.0898h-2.625c-0.12109-1.4141-1.332-2.543-2.7891-2.543h-1.5742v9.1719h1.5742c1.457 0 2.668-1.1328 2.7891-2.5859h2.625v0.078125c0 2.9102 2.3867 5.293 5.2969 5.293h3.2695c2.9102 0 5.293-2.3828 5.293-5.293v-0.078125h2.5859 0.042969c0.12109 1.4141 1.293 2.5859 2.7461 2.5859h1.5742v-9.1719h-1.5742c-1.4531 0-2.625 1.1289-2.7461 2.5859h-0.042969-2.5859v-1.0938c0-1.4141-0.5625-2.7461-1.5352-3.7578l-1.6562-1.6562c-0.52344-0.52344-1.0898-0.88672-1.7383-1.1289v-8.4883c2.1016-0.80469 3.5977-2.8281 3.5977-5.2109 0-2.3828-1.4961-4.4023-3.5977-5.2109v-8.4844c0.64844-0.24609 1.2148-0.64844 1.7383-1.1328l1.6562-1.6562c0.97266-0.96875 1.5352-2.3438 1.5352-3.7578v-1.0898h2.668c0.12109 1.4531 1.293 2.5859 2.7461 2.5859h1.5781v-9.2148h-1.5781c-1.4531 0-2.625 1.1328-2.7461 2.5859z"/>
</svg>