<svg xmlns="http://www.w3.org/2000/svg" viewBox="0 0 32 40" x="0px" y="0px"><title>Artboard 17</title><g><path d="M20.52,11.48a1.39,1.39,0,1,1,2-2,1.38,1.38,0,0,1,0,2A1.4,1.4,0,0,1,20.52,11.48Z"/><path d="M27.29,4.71a8.07,8.07,0,0,0-11.41,0,8,8,0,0,0-1.33,1.77l-10.39,14s0,0,0,.06-.17.13-.25.21a5.24,5.24,0,0,0,3.71,8.94,5.19,5.19,0,0,0,3.7-1.53h0c.08-.08.14-.17.21-.25l.06,0,14-10.39a8,8,0,0,0,1.77-1.33A8.07,8.07,0,0,0,27.29,4.71Zm-16,16A5.25,5.25,0,0,0,7.6,19.17l6-8a8.06,8.06,0,0,0,7.28,7.27l-8,6A5.16,5.16,0,0,0,11.29,20.71ZM19.11,8.09a3.39,3.39,0,0,1,4.8,4.8h0a3.39,3.39,0,0,1-4.8-4.8Z"/></g></svg>