<?xml version="1.0" standalone="no"?>
<!DOCTYPE svg PUBLIC "-//W3C//DTD SVG 20010904//EN"
 "http://www.w3.org/TR/2001/REC-SVG-20010904/DTD/svg10.dtd">
<svg version="1.0" xmlns="http://www.w3.org/2000/svg"
 width="1024.000000pt" height="1024.000000pt" viewBox="0 0 10240 10240"
 preserveAspectRatio="xMidYMid meet">

<g transform="translate(0.000000,10240.000000) scale(1.000000,-1.000000)"
fill="#000000" stroke="none">

<path fill="#004D9D" d="M630 1960 l0 -770 165 0 165 0 0 280 0 280 93 0 92 0 170 -280 170 -279 198 -1 c156 0 197 3 191 13 -4 6 -90 139 -192 295 -101 156 -182 285 -180 286 1 1 27 12 56 24 114 46 186 121 234 241 19 48 22 76 22 186 1 115 -2 136 -22 180 -38 82 -96 150 -172 200 -143 95 -267 115 -722 115 l-268 0 0 -770z m617 490 c144 -16 229 -81 240 -182 11 -100 -39 -182 -135 -219 -48 -18 -84 -23 -224 -27 l-168 -5 0 222 0 221 103 0 c56 0 139 -4 184 -10z"/>
<path fill="#004D9D" d="M2150 1960 l0 -770 165 0 165 0 0 770 0 770 -165 0 -165 0 0 -770z"/>
<path fill="#004D9D" d="M2860 2723 c-1 -5 -2 -351 -3 -770 l-2 -763 173 0 172 0 -2 360 c-2 198 0 360 4 360 3 0 127 -162 273 -360 l268 -360 203 0 c112 0 204 2 204 4 0 1 -137 185 -304 406 -296 393 -304 404 -288 425 28 35 258 316 419 514 l153 186 -202 3 c-153 2 -205 -1 -214 -10 -7 -7 -69 -87 -138 -178 -227 -298 -369 -480 -375 -480 -3 0 -5 151 -3 335 l3 335 -171 0 c-93 0 -170 -3 -170 -7z"/>
<path fill="#004D9D" d="M4770 2578 c-29 -84 -120 -333 -202 -553 -146 -390 -183 -491 -267 -722 l-40 -113 179 0 179 0 52 160 52 160 291 0 291 0 53 -160 53 -160 184 0 183 0 -45 118 c-52 133 -275 740 -394 1067 -44 121 -91 250 -105 288 l-26 67 -192 0 -192 0 -54 -152z m345 -503 c52 -154 95 -280 95 -282 0 -2 -88 -3 -196 -3 -153 0 -195 3 -192 13 3 6 47 135 98 285 51 150 94 271 96 269 2 -1 46 -128 99 -282z"/>
<path fill="#004D9D" d="M5980 1960 l0 -770 160 0 160 0 1 528 0 527 24 -65 c13 -36 96 -265 183 -510 88 -245 163 -453 167 -463 7 -16 20 -17 122 -15 l115 3 45 125 c86 239 334 914 336 917 2 1 1 -234 -1 -522 l-5 -525 162 0 161 0 0 770 0 770 -224 0 -224 0 -50 -147 c-126 -371 -286 -831 -299 -863 l-15 -35 -30 85 c-17 47 -97 281 -177 520 l-146 435 -232 3 -233 2 0 -770z"/>
<path fill="#004D9D" d="M7950 1961 l0 -771 369 0 c409 0 475 7 587 59 300 140 326 560 46 709 -33 18 -67 32 -76 32 -25 0 -19 17 8 24 44 11 121 91 152 158 27 58 29 72 29 178 0 105 -2 119 -27 166 -33 62 -94 119 -163 150 -106 49 -164 55 -557 61 l-368 6 0 -772z m695 475 c54 -23 71 -41 91 -92 38 -99 -15 -195 -126 -228 -37 -11 -94 -16 -187 -16 l-133 0 0 181 0 181 158 -4 c118 -3 167 -9 197 -22z m56 -619 c76 -37 103 -84 97 -173 -5 -78 -25 -110 -94 -144 -46 -23 -60 -25 -231 -28 l-183 -4 0 192 0 192 178 -4 c169 -4 181 -5 233 -31z"/>
<path fill="#004D9D" d="M9387 2723 c-4 -3 -7 -350 -7 -770 l0 -763 170 0 170 0 0 770 0 770 -163 0 c-90 0 -167 -3 -170 -7z"/>

<path fill="#004D9D" d="M4805 9435 c-165 -86 -444 -228 -620 -316 -367 -185 -743 -377 -893 -456 l-104 -55 127 -69 c70 -38 193 -107 275 -154 81 -47 151 -85 154 -85 4 0 315 154 692 343 l684 342 689 -344 688 -345 276 155 c152 85 277 157 277 160 0 10 -1918 979 -1937 979 -5 0 -143 -70 -308 -155z"/>
<path fill="#004D9D" d="M3077 6328 l3 -2181 290 -149 c160 -81 293 -148 295 -148 3 0 5 549 5 1221 0 671 4 1219 8 1217 5 -1 226 -121 493 -265 266 -143 572 -308 679 -366 l195 -104 3 285 c1 157 -1 289 -5 293 -7 6 -394 219 -1205 663 l-168 91 0 640 -1 640 -291 170 c-160 94 -294 171 -297 173 -3 1 -5 -980 -4 -2180z"/>
<path fill="#004D9D" d="M7030 8421 c-74 -43 -205 -118 -290 -168 l-155 -90 -3 -640 -2 -639 -528 -291 c-290 -160 -599 -331 -688 -380 l-161 -88 -5 -300 c-3 -165 -4 -302 -2 -304 1 -2 60 27 130 63 69 37 128 65 130 63 2 -2 40 -135 84 -295 144 -526 236 -865 275 -1009 l38 -142 156 -84 c272 -148 311 -168 311 -163 0 3 -72 256 -159 563 -138 483 -355 1256 -363 1293 -3 12 115 88 138 89 6 1 18 -25 27 -56 8 -32 67 -242 130 -468 64 -225 179 -639 258 -920 78 -280 149 -536 158 -568 l17 -57 289 160 c159 89 293 164 298 169 4 4 -24 111 -63 237 -39 126 -97 324 -130 439 -97 347 -248 885 -317 1135 -36 129 -67 242 -70 251 -4 15 42 42 500 293 l149 81 -4 952 c-1 524 -5 953 -8 952 -3 0 -66 -36 -140 -78z"/>
<path fill="#004D9D" d="M3827 5413 c-9 -810 -9 -1563 1 -1563 4 0 135 67 292 148 l285 148 6 205 c4 112 6 464 5 782 l-1 579 -130 69 c-301 162 -446 239 -449 239 -1 0 -6 -273 -9 -607z"/>

<path fill="#0088CC" d="M4470 8476 l-645 -324 3 -588 3 -589 132 -71 c73 -40 363 -198 645 -353 l514 -280 116 61 c222 116 468 251 825 450 l357 200 0 587 0 586 -648 323 c-356 177 -650 322 -652 321 -3 0 -295 -146 -650 -323z m1025 -414 l370 -188 0 -330 0 -329 -365 -192 c-201 -106 -372 -192 -380 -192 -8 0 -175 84 -370 187 l-355 188 0 333 0 334 360 188 c198 103 362 188 365 188 3 0 172 -84 375 -187z"/>

</g>
</svg>